<svg width="192" height="24" version="1.1" viewBox="0 0 192 24" xml:space="preserve" xmlns="http://www.w3.org/2000/svg"><defs><clipPath id="clipPath26"><path d="m0 132.65h461.9v-132.65h-461.9z"/></clipPath></defs><g transform="matrix(1.1429 0 0 -1.1429 -36.081 107.02)" stroke-width="1.1667"><g transform="matrix(.42382 0 0 .41965 18.191 54.344)" stroke-width="2.7664"><g clip-path="url(#clipPath26)" stroke-width="2.7664"><g transform="translate(82.183 84.254)"><path d="m0 0v-31.268c0-5.183-4.218-9.388-9.418-9.388h-31.781c-5.2 0-9.413 4.202-9.413 9.385v31.271c0 5.184 4.215 9.386 9.415 9.386h31.779c5.2 0 9.418-4.202 9.418-9.386" fill="#e07b34"/></g><g transform="translate(77.51 84.158)"><path d="m0 0v-29.649c0-3.445-2.787-6.237-6.226-6.237h-13.458c-1.759 0-3.186 1.429-3.186 3.191v4.815c0 0.202 0.118 0.391 0.306 0.467 8e-3 3e-3 0.016 6e-3 0.023 0.01 0.776 0.302 1.656 0.161 2.345-0.305l0.291-0.198c0.11-0.075 0.211-0.158 0.308-0.245 0.826-0.741 1.898-1.196 2.923-1.196 2.11 0 3.819 1.927 3.819 4.305 0 2.377-1.709 4.304-3.819 4.304-1.008 0-2.06-0.441-2.88-1.158-0.126-0.109-0.255-0.216-0.393-0.31l-0.36-0.244c-0.59-0.398-1.327-0.511-2.009-0.307l-5e-3 2e-3c-0.326 0.097-0.549 0.398-0.549 0.737v13.428c0 0.381-0.251 0.716-0.616 0.822l-0.011 3e-3c-0.718 0.203-1.491 0.042-2.11-0.374l-0.255-0.174c-0.139-0.093-0.267-0.201-0.393-0.311-0.82-0.718-1.876-1.16-2.883-1.16-2.111 0-3.819 1.927-3.819 4.304 0 2.378 1.708 4.305 3.819 4.305 1.023 0 2.096-0.453 2.922-1.193 0.097-0.09 0.199-0.173 0.309-0.248l0.36-0.244c0.602-0.408 1.351-0.529 2.05-0.333l7e-3 1e-3c0.366 0.103 0.62 0.438 0.62 0.819v4.946c0 1.22 0.987 2.208 2.202 2.208h15.895c2.636 0 4.773-2.141 4.773-4.781" fill="#fff"/></g><g transform="translate(120.16 86.074)"><path d="m0 0c-5.876 0-8.815-2.06-8.815-6.178 0-2.13 0.694-3.645 2.082-4.547s4.453-2.013 9.198-3.332c4.743-1.319 8.088-2.893 10.031-4.72 1.943-1.829 2.915-4.71 2.915-8.642 0-4.999-1.422-8.737-4.269-11.212-2.847-2.476-6.723-3.714-11.627-3.714-3.933 0-8.285 0.464-13.051 1.389l-2.499 0.485 0.764 6.179c6.247-0.833 11.013-1.25 14.3-1.25 5.738 0 8.608 2.545 8.608 7.636 0 1.989-0.649 3.459-1.944 4.408-1.296 0.948-4.212 1.989-8.746 3.124-4.537 1.134-7.914 2.695-10.135 4.686-2.223 1.989-3.333 5.136-3.333 9.44s1.399 7.555 4.2 9.753c2.8 2.198 6.675 3.298 11.628 3.298 3.563 0 7.775-0.417 12.633-1.25l2.43-0.416-0.625-6.248c-6.479 0.74-11.061 1.111-13.745 1.111" fill="#707171"/></g><g transform="translate(148.31 52.893)"><path d="m0 0c1.063-1.852 3.147-2.777 6.248-2.777 3.1 0 5.182 0.925 6.247 2.777 1.065 1.85 1.596 4.882 1.596 9.094 0 4.21-0.566 7.195-1.7 8.954-1.135 1.759-3.182 2.638-6.143 2.638-2.962 0-5.01-0.879-6.144-2.638s-1.701-4.744-1.701-8.954c0-4.212 0.532-7.244 1.597-9.094m-5.657 22.56c2.383 3.008 6.352 4.513 11.905 4.513s9.521-1.505 11.905-4.513c2.383-3.008 3.575-7.521 3.575-13.537s-1.158-10.55-3.471-13.605c-2.315-3.054-6.318-4.582-12.009-4.582-5.693 0-9.696 1.528-12.009 4.582-2.315 3.055-3.471 7.589-3.471 13.605s1.191 10.529 3.575 13.537" fill="#707171"/></g><g transform="translate(188.2 79.965)"><path d="m0 0c2.452 0 5.345-0.325 8.677-0.973l1.735-0.346-0.277-5.97c-3.656 0.37-6.364 0.555-8.122 0.555-3.517 0-5.877-0.787-7.08-2.36-1.204-1.573-1.806-4.536-1.806-8.885 0-4.351 0.579-7.358 1.736-9.024 1.156-1.666 3.563-2.499 7.22-2.499l8.121 0.555 0.208-6.039c-4.674-0.833-8.19-1.25-10.551-1.25-5.276 0-8.989 1.423-11.141 4.269-2.153 2.846-3.228 7.508-3.228 13.988 0 6.479 1.133 11.094 3.402 13.849 2.267 2.752 5.969 4.13 11.106 4.13" fill="#707171"/></g><g transform="translate(213.04 44.493)"><path d="m0 0h-7.566v49.147h7.566v-28.392l4.305 0.417 8.19 13.537h8.469l-9.995-16.244 10.551-18.465h-8.539l-8.468 14.647-4.513-0.485z" fill="#707171"/></g><g transform="translate(260.22 64.484)"><path d="m0 0c0 3.425-0.545 5.82-1.632 7.185-1.088 1.364-2.927 2.048-5.518 2.048-2.593 0-4.478-0.718-5.658-2.152-1.179-1.435-1.794-3.795-1.84-7.081zm4.164-13.744 1.943 0.208 0.139-5.623c-5.275-1.064-9.95-1.596-14.021-1.596-5.137 0-8.828 1.411-11.072 4.234-2.245 2.822-3.367 7.335-3.367 13.537 0 12.309 5.02 18.465 15.064 18.465 9.717 0 14.577-5.3 14.577-15.897l-0.486-5.414h-21.52c0.047-2.871 0.671-4.976 1.875-6.317 1.204-1.344 3.448-2.014 6.733-2.014 3.286 0 6.664 0.14 10.135 0.417" fill="#707171"/></g><g transform="translate(293.86 72.746)"><path d="m0 0h-9.58v-15.272c0-2.823 0.208-4.698 0.624-5.623 0.418-0.926 1.481-1.388 3.193-1.388l5.694 0.208 0.346-6.039c-3.1-0.601-5.462-0.903-7.08-0.903-3.934 0-6.63 0.903-8.088 2.708s-2.186 5.206-2.186 10.204v16.105h-4.443v6.456h4.443v10.065h7.497v-10.065h9.58z" fill="#707171"/></g><g transform="translate(327.73 44.493)"><path d="m0 0h-26.657v47.551h7.706v-40.678h18.951z" fill="#e07b34"/></g><g transform="translate(343.19 59.903)"><path d="m0 0c-3.193-0.277-4.79-2.013-4.79-5.206s1.41-4.79 4.233-4.79c2.314 0 4.767 0.37 7.36 1.111l1.248 0.416v9.233zm15.549 8.607v-15.826c0.045-1.019 0.312-1.77 0.798-2.257 0.485-0.485 1.238-0.798 2.257-0.937l-0.21-5.761c-3.98 0-7.057 0.856-9.232 2.568-3.703-1.712-7.427-2.568-11.177-2.568-6.895 0-10.342 3.679-10.342 11.037 0 3.516 0.937 6.062 2.811 7.636 1.874 1.573 4.756 2.522 8.643 2.846l8.954 0.763v2.499c0 1.851-0.405 3.147-1.214 3.888-0.811 0.739-2.002 1.111-3.574 1.111-2.963 0-6.665-0.186-11.108-0.556l-2.221-0.138-0.278 5.344c5.043 1.203 9.683 1.806 13.918 1.806s7.289-0.915 9.163-2.743 2.812-4.732 2.812-8.712" fill="#e07b34"/></g><g transform="translate(378.57 50.332)"><path d="m0 0c3.702 0 6.166 0.868 7.393 2.603 1.226 1.735 1.84 4.686 1.84 8.851s-0.521 7.091-1.561 8.781c-1.042 1.689-2.743 2.534-5.103 2.534-2.222 0-4.443-0.348-6.664-1.041l-1.111-0.348v-21.103c2.545-0.184 4.28-0.277 5.206-0.277m3.471 29.502c4.765 0 8.202-1.331 10.308-3.991 2.106-2.662 3.159-7.37 3.159-14.127s-1.25-11.466-3.749-14.126c-2.499-2.661-6.896-3.991-13.189-3.991-2.176 0-5.622 0.208-10.343 0.625l-2.359 0.208v49.078h7.496v-15.758c3.193 1.388 6.085 2.082 8.677 2.082" fill="#e07b34"/></g><g transform="translate(426.78 72.051)"><path d="m0 0c-5.462 0.74-9.418 1.111-11.87 1.111-2.453 0-4.154-0.29-5.103-0.868-0.949-0.579-1.423-1.493-1.423-2.742 0-1.25 0.521-2.129 1.563-2.638 1.041-0.509 3.493-1.099 7.357-1.77 3.865-0.671 6.607-1.724 8.226-3.158 1.62-1.435 2.43-3.981 2.43-7.636 0-3.656-1.169-6.341-3.506-8.053-2.336-1.712-5.749-2.568-10.239-2.568-2.822 0-6.385 0.394-10.69 1.18l-2.151 0.347 0.277 6.317c5.553-0.741 9.556-1.11 12.009-1.11 2.452 0 4.2 0.3 5.241 0.902 1.042 0.601 1.562 1.597 1.562 2.985s-0.497 2.348-1.493 2.881c-0.995 0.531-3.378 1.11-7.149 1.735-3.773 0.625-6.537 1.607-8.296 2.95-1.759 1.342-2.637 3.795-2.637 7.358 0 3.564 1.214 6.224 3.644 7.983s5.542 2.639 9.336 2.639c2.961 0 6.595-0.372 10.899-1.112l2.152-0.416z" fill="#e07b34"/></g></g></g></g></svg>
